<svg width="31" height="31" viewBox="0 0 31 31" fill="none" xmlns="http://www.w3.org/2000/svg">
<g clip-path="url(#clip0_384_2)">
<path fill-rule="evenodd" clip-rule="evenodd" d="M15.5443 0.553559C15.1937 0.553416 14.8469 0.626175 14.5259 0.767216C14.205 0.908257 13.9168 1.1145 13.6798 1.37284L11.1711 3.86392C10.9033 3.31357 10.543 2.81327 10.106 2.38477C9.08238 1.36117 7.69408 0.786116 6.24648 0.786116C4.79889 0.786116 3.41059 1.36117 2.38698 2.38477C1.36338 3.40838 0.788325 4.79668 0.788325 6.24427C0.788325 7.69187 1.36338 9.08017 2.38698 10.1038C2.81434 10.54 3.30813 10.8943 3.84841 11.16L1.37284 13.5913C1.11429 13.8282 0.907839 14.1163 0.766602 14.4372C0.625364 14.7582 0.552429 15.105 0.552429 15.4557C0.552429 15.8064 0.625364 16.1532 0.766602 16.4742C0.907839 16.7951 1.11429 17.0832 1.37284 17.3201L4.61898 20.5685C4.74392 20.6935 4.89698 20.7869 5.06538 20.8407C5.23377 20.8944 5.41259 20.9071 5.58689 20.8776C5.76119 20.8482 5.92589 20.7774 6.06722 20.6712C6.20856 20.565 6.32241 20.4265 6.39927 20.2673C6.60184 19.8356 6.89633 19.4533 7.26213 19.1473C7.62792 18.8412 8.05619 18.6188 8.51695 18.4957C8.9777 18.3725 9.45981 18.3515 9.92952 18.4342C10.3992 18.5169 10.8452 18.7012 11.2362 18.9744C11.6272 19.2475 11.9538 19.6027 12.1931 20.0153C12.4324 20.4278 12.5786 20.8877 12.6215 21.3627C12.6645 21.8377 12.6031 22.3163 12.4417 22.7651C12.2802 23.2139 12.0227 23.622 11.687 23.9608C11.4189 24.2219 11.111 24.4387 10.7747 24.6029C10.6179 24.6791 10.4814 24.7913 10.3761 24.9303C10.2709 25.0692 10.1999 25.2311 10.1691 25.4026C10.1382 25.5742 10.1483 25.7506 10.1985 25.9176C10.2487 26.0845 10.3377 26.2372 10.4581 26.3633L13.5868 29.6183C13.8232 29.8779 14.111 30.0856 14.4319 30.228C14.7529 30.3704 15.0999 30.4445 15.451 30.4456C15.8022 30.4466 16.1497 30.3746 16.4714 30.2341C16.7932 30.0935 17.0822 29.8876 17.3201 29.6293L19.8356 27.1272C20.2152 27.9095 20.7764 28.5897 21.4725 29.1109C22.1685 29.6322 22.9792 29.9794 23.8367 30.1235C24.6943 30.2676 25.5738 30.2045 26.402 29.9394C27.2302 29.6743 27.983 29.215 28.5975 28.5997C29.2117 27.9865 29.6706 27.2355 29.9362 26.4092C30.2018 25.5829 30.2664 24.7052 30.1246 23.849C29.9827 22.9927 29.6386 22.1827 29.1207 21.4862C28.6029 20.7897 27.9263 20.2268 27.1471 19.8444L29.6249 17.4087C29.8835 17.1716 30.09 16.8833 30.2313 16.5622C30.3725 16.241 30.4455 15.894 30.4455 15.5432C30.4455 15.1923 30.3725 14.8453 30.2313 14.5242C30.09 14.203 29.8835 13.9147 29.6249 13.6776L26.3323 10.4271C26.207 10.3035 26.0541 10.2117 25.8862 10.159C25.7183 10.1064 25.5403 10.0945 25.367 10.1244C25.1936 10.1542 25.0298 10.225 24.8893 10.3308C24.7487 10.4366 24.6353 10.5743 24.5586 10.7326C24.3997 11.0612 24.1905 11.363 23.9386 11.6272C23.3182 12.1884 22.5057 12.4898 21.6694 12.4689C20.833 12.4481 20.0366 12.1067 19.4449 11.5152C18.8531 10.9237 18.5113 10.1275 18.49 9.29115C18.4688 8.45478 18.7698 7.64222 19.3307 7.02149C19.5964 6.76906 19.8976 6.55649 20.2253 6.39927C20.3828 6.32324 20.5201 6.21096 20.6259 6.07162C20.7317 5.93229 20.803 5.76986 20.8339 5.59767C20.8648 5.42547 20.8544 5.24841 20.8037 5.08099C20.7529 4.91356 20.6632 4.76055 20.5419 4.63449L17.4131 1.37949C17.1762 1.11938 16.8876 0.91158 16.5658 0.769362C16.244 0.627145 15.8961 0.553644 15.5443 0.553559Z" fill="black"/>
</g>
<defs>
<clipPath id="clip0_384_2">
<rect width="31" height="31" fill="white"/>
</clipPath>
</defs>
</svg>
