<svg width="25" height="31" viewBox="0 0 25 31" fill="none" xmlns="http://www.w3.org/2000/svg">
<path d="M5.37354 11.9277C5.08089 12.4424 4.72266 12.841 4.29883 13.1235C3.875 13.4061 3.35531 13.5524 2.73975 13.5625C2.3361 13.5625 1.96777 13.507 1.63477 13.396C1.30176 13.285 1.00911 13.1134 0.756836 12.8813C0.504557 12.6493 0.317871 12.3768 0.196777 12.064C0.0756836 11.7511 0.0100911 11.3778 0 10.9438C0 10.4897 0.0655924 10.0962 0.196777 9.76318C0.327962 9.43018 0.519694 9.14258 0.771973 8.90039C1.02425 8.6582 1.32194 8.46647 1.66504 8.3252C2.00814 8.18392 2.39665 8.07796 2.83057 8.00732L5.40381 7.62891C5.40381 7.32617 5.37858 7.03857 5.32812 6.76611C5.27767 6.49365 5.1818 6.25146 5.04053 6.03955C4.89925 5.82764 4.71761 5.66113 4.49561 5.54004C4.2736 5.41895 3.986 5.35335 3.63281 5.34326C3.09798 5.34326 2.59847 5.43913 2.13428 5.63086C1.67008 5.82259 1.23617 6.09505 0.83252 6.44824V4.96484C0.993978 4.84375 1.1958 4.73275 1.43799 4.63184C1.68018 4.53092 1.94255 4.44515 2.2251 4.37451C2.50765 4.30387 2.78011 4.24333 3.04248 4.19287C3.30485 4.14242 3.54199 4.11719 3.75391 4.11719C4.29883 4.11719 4.76302 4.19287 5.14648 4.34424C5.52995 4.49561 5.84277 4.72266 6.08496 5.02539C6.32715 5.32812 6.50374 5.68132 6.61475 6.08496C6.72575 6.48861 6.78125 6.9528 6.78125 7.47754V13.3354H5.40381V11.9277H5.37354ZM3.05762 12.3364C3.43099 12.3364 3.75895 12.2658 4.0415 12.1245C4.32406 11.9832 4.57129 11.7865 4.7832 11.5342C4.99512 11.2819 5.14648 10.9993 5.2373 10.6865C5.32812 10.3737 5.38363 10.0407 5.40381 9.6875V8.7793L3.33008 9.09717C3.04753 9.14762 2.7902 9.20312 2.55811 9.26367C2.32601 9.32422 2.12419 9.41504 1.95264 9.53613C1.78109 9.65723 1.6499 9.82373 1.55908 10.0356C1.46826 10.2476 1.41781 10.515 1.40771 10.8379C1.40771 11.3223 1.56917 11.6906 1.89209 11.9429C2.21501 12.1951 2.60352 12.3263 3.05762 12.3364ZM10.0962 12.0488V13.3354H8.71875V0H10.0962V5.91846H10.1265C10.4595 5.32308 10.8984 4.87402 11.4434 4.57129C11.9883 4.26855 12.5988 4.11719 13.2749 4.11719C13.9106 4.11719 14.4505 4.24333 14.8945 4.49561C15.3385 4.74788 15.7018 5.08594 15.9844 5.50977C16.2669 5.93359 16.4738 6.40788 16.605 6.93262C16.7362 7.45736 16.8018 8.00228 16.8018 8.56738C16.8018 9.18294 16.7311 9.78841 16.5898 10.3838C16.4486 10.9792 16.2165 11.509 15.8936 11.9731C15.5706 12.4373 15.167 12.8208 14.6826 13.1235C14.1982 13.4263 13.5978 13.5726 12.8813 13.5625C12.3062 13.5625 11.7764 13.4364 11.292 13.1841C10.8076 12.9318 10.4191 12.5534 10.1265 12.0488H10.0962ZM10.0962 8.40088V9.65723C10.0962 10.0508 10.1567 10.409 10.2778 10.7319C10.3989 11.0549 10.5806 11.3374 10.8228 11.5796C11.0649 11.8218 11.3424 12.0085 11.6553 12.1396C11.9681 12.2708 12.3263 12.3364 12.73 12.3364C13.2446 12.3364 13.6735 12.2204 14.0166 11.9883C14.3597 11.7562 14.6322 11.4535 14.834 11.0801C15.0358 10.7067 15.1771 10.3031 15.2578 9.86914C15.3385 9.43522 15.384 8.99626 15.394 8.55225C15.394 8.15869 15.3537 7.77018 15.2729 7.38672C15.1922 7.00326 15.0509 6.66016 14.8491 6.35742C14.6473 6.05469 14.39 5.8125 14.0771 5.63086C13.7643 5.44922 13.3809 5.35335 12.9268 5.34326C12.4727 5.34326 12.069 5.41895 11.7158 5.57031C11.3626 5.72168 11.0649 5.93864 10.8228 6.22119C10.5806 6.50374 10.3989 6.82666 10.2778 7.18994C10.1567 7.55322 10.0962 7.95687 10.0962 8.40088ZM22.811 5.34326C22.3065 5.34326 21.8675 5.44417 21.4941 5.646C21.1208 5.84782 20.8079 6.11523 20.5557 6.44824C20.3034 6.78125 20.1167 7.16471 19.9956 7.59863C19.8745 8.03255 19.814 8.47656 19.814 8.93066C19.814 9.38477 19.8695 9.81868 19.9805 10.2324C20.0915 10.6462 20.2681 11.0094 20.5103 11.3223C20.7524 11.6351 21.0552 11.8823 21.4185 12.064C21.7817 12.2456 22.2207 12.3364 22.7354 12.3364C23.1188 12.3364 23.4871 12.2658 23.8403 12.1245C24.1935 11.9832 24.5265 11.7915 24.8394 11.5493V12.9268C24.4862 13.1589 24.1128 13.3203 23.7192 13.4111C23.3257 13.502 22.917 13.5524 22.4932 13.5625C21.8372 13.5625 21.257 13.4465 20.7524 13.2144C20.2479 12.9823 19.8241 12.6593 19.481 12.2456C19.1379 11.8319 18.8704 11.3525 18.6787 10.8076C18.487 10.2627 18.3962 9.67741 18.4062 9.05176C18.4062 8.35547 18.5021 7.70964 18.6938 7.11426C18.8856 6.51888 19.1681 5.99414 19.5415 5.54004C19.9149 5.08594 20.3791 4.73779 20.9341 4.49561C21.4891 4.25342 22.1349 4.12728 22.8716 4.11719C23.2147 4.11719 23.5527 4.15251 23.8857 4.22314C24.2188 4.29378 24.5417 4.40983 24.8545 4.57129V6.03955C24.5518 5.81755 24.2288 5.646 23.8857 5.5249C23.5426 5.40381 23.1844 5.34326 22.811 5.34326ZM10.6411 27.6851L21.6001 16.7563L22.9624 18.1187L10.6411 30.4399L4.1626 23.9312L5.5249 22.5688L10.6411 27.6851Z" fill="black"/>
</svg>
